<?xml version="1.0" encoding="UTF-8"?>
<svg width="267px" height="272px" viewBox="0 0 267 272" version="1.1" xmlns="http://www.w3.org/2000/svg" xmlns:xlink="http://www.w3.org/1999/xlink">
    <!-- Generator: Sketch 41 (35326) - http://www.bohemiancoding.com/sketch -->
    <title>idribbble_logo</title>
    <desc>Created with Sketch.</desc>
    <defs></defs>
    <g id="Page-1" stroke="none" stroke-width="1" fill="none" fill-rule="evenodd">
        <path d="M262.418464,174.099378 C246.068192,228.426614 195.655526,268 136,268 C63.098413,268 4,208.901587 4,136 C4,63.098413 63.098413,4 136,4 C172.639203,4 205.791847,18.9277343 229.707776,43.0330463 C218.438161,57.5782174 211.730469,75.835854 211.730469,95.6601562 C211.730469,130.571605 232.532851,160.624396 262.418463,174.09938 Z" id="Combined-Shape" stroke="#BD2057" stroke-width="7" fill="#E7427E"></path>
        <path d="M97.4804688,9.66015625 C97.4804688,9.66015625 173.789063,173.972656 187.386719,256.589844" id="Path-2" stroke="#BD2057" stroke-width="7"></path>
        <path d="M12.9726562,88.5820312 C12.9726562,88.5820312 117.863673,169.898923 212.252085,84.5372484" id="Path-3" stroke="#BD2057" stroke-width="7"></path>
        <path d="M57.7617188,241.5625 C57.7617188,241.5625 104.210684,137.328623 234.218795,152.157675" id="Path-4" stroke="#BD2057" stroke-width="7"></path>
    </g>
</svg>